<?xml version="1.0" encoding="utf-8"?>
<!-- Generator: Adobe Illustrator 25.0.1, SVG Export Plug-In . SVG Version: 6.00 Build 0)  -->
<svg version="1.1" id="图层_1" xmlns="http://www.w3.org/2000/svg" xmlns:xlink="http://www.w3.org/1999/xlink" x="0px" y="0px"
	 viewBox="0 0 116.8 78.3" style="enable-background:new 0 0 116.8 78.3;" xml:space="preserve">
<style type="text/css">
	.st0{fill:#FFFFFF;}
</style>
<g>
	<path class="st0" d="M52.4,23.5c0-3.8,1.9-5.8,4.9-5.8s4.7,2,4.7,5.8v15.9h8V23.6c0-3.8,1.9-5.8,4.9-5.8s4.7,1.9,4.6,5.7v15.8h8
		V20.9c0-6.8-3.5-10.4-9.5-10.4c-3.9,0-6.8,1.6-9.3,4.5c-1.5-2.9-4.3-4.5-8-4.5c-4,0-6.5,2.1-8.3,4.5c0-2.2-1.8-4-4-4h-4v28.3h8
		C52.4,39.3,52.4,23.5,52.4,23.5z"/>
	<circle class="st0" cx="33.7" cy="3.8" r="3.8"/>
	<path class="st0" d="M114.5,43.5v15.4c-1.9-3-5-5.7-9.8-5.7c-5.7,0-11.6,4.7-11.6,12.5v0.1c0,7.8,5.8,12.4,11.6,12.4
		c4.7,0,7.7-2.8,9.8-5.9v3.4c0,1.3,1,2.3,2.3,2.3V45.8C116.8,44.5,115.8,43.5,114.5,43.5z M114.6,65.7c0,6.1-4.7,10.3-9.7,10.3
		s-9.4-4-9.4-10.3v-0.1c0-6.4,4.2-10.2,9.4-10.2C109.8,55.4,114.6,59.5,114.6,65.7L114.6,65.7z"/>
	<path class="st0" d="M12.7,53.2C8,53.2,5,56,2.9,59.1V45.8c0-1.3-1-2.3-2.3-2.3v31.9c0,1.3,1,2.3,2.3,2.3v-5.2c1.9,3,5,5.7,9.8,5.7
		c5.7,0,11.6-4.7,11.6-12.5C24.3,57.9,18.4,53.2,12.7,53.2z M21.8,65.9c0,6.4-4.2,10.2-9.4,10.2c-4.9,0-9.7-4.2-9.7-10.3v-0.1
		c0-6.1,4.7-10.3,9.7-10.3S21.8,59.4,21.8,65.9L21.8,65.9z"/>
	<path class="st0" d="M82.1,60.6v-4.5c0-1.3-1-2.3-2.3-2.3v24h2.3V68c0-6.7,3.5-10.7,8-11.7c0.1-0.1,0.2-0.1,0.3-0.1
		c1.9-0.4,2.2-1.6,2.3-2.3v-0.5C88,53.2,84,56.3,82.1,60.6z"/>
	<path class="st0" d="M64.5,53.3c-3.3,0-5.9,0.9-8.5,2.1c0.4,1.1,1.6,1.6,2.7,1.2c1.7-0.7,3.5-1.1,5.6-1.1c4.9,0,7.9,2.5,7.9,7.3v1
		c-2.3-0.6-4.6-1-7.9-1c-6.1,0-10.4,2.8-10.4,7.8v0.2c0,5,4.8,7.5,9.2,7.5c4.5,0,7.5-2.2,9.1-4.5v1.7c0,1.2,1,2.2,2.2,2.2V62.6
		c0-2.9-0.8-5.1-2.4-6.7C70.3,54.2,67.7,53.3,64.5,53.3z M72.1,68.7c0,4.4-4.1,7.4-9,7.4c-3.6,0-6.9-2-6.9-5.6
		c0-3.3,2.8-5.6,7.8-5.6c3.4,0,6.1,0.6,8.1,1.1V68.7z"/>
	<path class="st0" d="M100.5,39.8c3.9,0,6.5-1.4,8.5-3.6c0,1.7,1.4,3.1,3.1,3.1h4.7V22.8c0-3.8-1-6.9-3.1-9c-2-2-5.1-3.2-9.5-3.2
		c-4.8,0-7.9,0.9-11,2.3l0.5,1.5c0.8,2.4,3.2,3.9,5.7,3.4c1.1-0.2,2.3-0.3,3.6-0.3c4,0,6.1,1.9,6.1,5.2v0.5c-2-0.7-4.1-1.2-6.9-1.2
		c-6.7,0-11.4,2.8-11.4,9v0.1C90.8,36.7,95.2,39.8,100.5,39.8z M98.6,30.8c0-2.5,2.1-3.9,5.5-3.9c1.3,0,2.5,0.2,3.6,0.5
		c0.9,0.2,1.5,1,1.6,1.9c0,2.9-2.6,5-6.3,5C100.4,34.3,98.6,33.1,98.6,30.8L98.6,30.8z"/>
	<path class="st0" d="M39.2,78.2c7.1,0,12.3-5.8,12.3-12.5c0-6.8-5.1-12.5-12.2-12.5S27,59,27,65.7v0.1C27,72.5,32.1,78.2,39.2,78.2
		z M29.5,65.6c0-5.6,4-10.2,9.7-10.2c5.5,0,9.8,4.6,9.8,10.2v0.1c0,5.7-4,10.3-9.7,10.3C33.8,76,29.5,71.5,29.5,65.6L29.5,65.6z"/>
	<path class="st0" d="M24.6,32.8L24.6,32.8L9.8,32.7l10.9-12c2.4-2.7,3.8-6.2,3.8-9.8H0.4v6.5h14.2l-11,12.2C1.3,32.2,0,35.5,0,39
		v0.3h24.6V32.8z"/>
	<path class="st0" d="M37.9,15.8c0-2.7-2.2-4.8-4.8-4.8h-3.2v28.3h8V15.8z"/>
</g>
</svg>
