<svg width="136" height="33" viewBox="0 0 136 33" fill="none" xmlns="http://www.w3.org/2000/svg">
<path fill-rule="evenodd" clip-rule="evenodd" d="M0 25.3184V32.6632H29.9178V25.3103H11.6497L26.2172 8.75225C27.0142 7.85437 28.0746 7.35286 29.199 7.35286H29.9178V0H0V7.35286H18.3036L3.76463 23.8867C2.95335 24.8088 1.87164 25.3184 0.718767 25.3184H0ZM123.507 0H124.567C124.226 0.889785 124.226 1.9009 124.567 2.79069L135.911 32.6632H128.275L120.219 11.4459L112.163 32.6632H104.527L115.871 2.79069C116.213 1.9009 116.213 0.889785 115.871 0H123.507ZM97.119 0H92.6641V0.93023C92.6641 2.20828 92.1517 3.42163 91.2764 4.22243L84.5797 10.3377L77.8902 4.23052C77.0149 3.42972 76.5025 2.21637 76.5025 0.938319V0H69.628V32.6713H76.5025V12.9828L79.1 15.3447L84.594 20.3599L90.0808 15.3528L92.6783 12.9828V32.6713H99.5528V0H97.1332H97.119ZM53.153 9.51261V23.1506V23.1587C53.153 24.3154 53.9786 25.2456 54.9891 25.2456H64.1338V32.6794H35.6393V25.2456H44.784C45.8017 25.2456 46.6201 24.3073 46.6201 23.1587V9.5207C46.6201 8.36398 45.7946 7.43375 44.784 7.43375H35.6393V0H64.1338V7.42566H54.9891C53.9714 7.42566 53.153 8.36398 53.153 9.51261Z" fill="white"/>
</svg>
