<svg width="19" height="15" viewBox="0 0 19 15" fill="none" xmlns="http://www.w3.org/2000/svg">
<path opacity="0.5" d="M12.1514 0.0443484C12.0775 0.177394 11.9999 0.328916 11.9186 0.498918C11.8373 0.668921 11.7597 0.842617 11.6858 1.02001L11.6636 1.08653C11.3384 1.0274 10.991 0.983054 10.6214 0.953488C10.2518 0.923923 9.87489 0.90914 9.49054 0.90914C9.10618 0.90914 8.72553 0.923923 8.34857 0.953488C7.97161 0.983054 7.60574 1.0274 7.25095 1.08653H7.31747C7.24356 0.879573 7.16225 0.687399 7.07355 0.510006C6.98486 0.332611 6.89616 0.162611 6.80746 0L6.82964 0.0443484C6.0905 0.162611 5.39202 0.328916 4.73418 0.543267C4.07634 0.757618 3.437 1.01262 2.81612 1.30827L2.90481 1.26393C2.46133 1.91437 2.05481 2.60176 1.68524 3.32612C1.33045 4.06526 1.0274 4.82657 0.776095 5.61006C0.524787 6.39355 0.332613 7.20659 0.199567 8.04922C0.0665217 8.87706 0 9.72706 0 10.5992C0 10.8949 0.00739112 11.1832 0.0221742 11.464C0.0369568 11.7449 0.059131 12.0258 0.0886967 12.3067L0.0665225 12.2401C0.761316 12.7575 1.50414 13.2195 2.29502 13.626C3.08591 14.0325 3.91004 14.3762 4.76744 14.6571L4.87831 14.6793C5.05571 14.4428 5.2294 14.1915 5.39941 13.9254C5.56941 13.6593 5.73571 13.3858 5.89832 13.1049L5.9205 13.0384C5.61006 12.9201 5.3181 12.7945 5.04462 12.6614C4.77114 12.5284 4.50875 12.388 4.25744 12.2401L4.30179 12.2623C4.3757 12.2032 4.44592 12.1477 4.51244 12.096C4.57896 12.0443 4.64179 11.9888 4.70092 11.9297V11.9519C5.39571 12.2919 6.14963 12.558 6.96268 12.7501C7.77574 12.9423 8.61835 13.0384 9.49054 13.0384C10.3627 13.0384 11.2053 12.9423 12.0184 12.7501C12.8314 12.558 13.6075 12.2771 14.3467 11.9075L14.2802 11.9519C14.4132 12.0553 14.5462 12.1588 14.6793 12.2623C14.4428 12.3954 14.1952 12.5284 13.9365 12.6614C13.6778 12.7945 13.408 12.9127 13.1271 13.0162L13.0606 13.0384C13.2232 13.3636 13.3895 13.6667 13.5595 13.9475C13.7295 14.2284 13.9106 14.5019 14.1028 14.768L14.0806 14.7236C14.9971 14.4428 15.8545 14.0954 16.6528 13.6815C17.4511 13.2675 18.205 12.7945 18.9146 12.2623L18.8702 12.2845C18.8998 12.0332 18.9219 11.7671 18.9367 11.4862C18.9515 11.2053 18.9589 10.9171 18.9589 10.6214C18.9589 9.74923 18.8924 8.89923 18.7593 8.07139C18.6263 7.22877 18.4304 6.41572 18.1717 5.63223C17.913 4.84874 17.6063 4.08744 17.2515 3.3483C16.8819 2.62394 16.4606 1.92915 15.9876 1.26393L16.0319 1.30827C15.4702 1.0274 14.8715 0.779792 14.2358 0.565441C13.6001 0.35109 12.9423 0.177394 12.2623 0.0443484H12.1514ZM6.34181 10.0227C5.86876 9.99315 5.46963 9.80098 5.1444 9.44619C4.81918 9.0914 4.65657 8.6701 4.65657 8.18226C4.65657 8.18226 4.65657 8.17487 4.65657 8.16009C4.65657 8.1453 4.65657 8.13052 4.65657 8.11574V8.13791C4.65657 8.12313 4.65288 8.10835 4.64548 8.09356C4.63809 8.07878 4.6344 8.064 4.6344 8.04922C4.6344 7.57617 4.8007 7.16225 5.13332 6.80746C5.46593 6.45268 5.86876 6.2605 6.34181 6.23094C6.82964 6.2605 7.23616 6.45268 7.56139 6.80746C7.88661 7.16225 8.04922 7.57617 8.04922 8.04922C8.04922 8.064 8.04922 8.07878 8.04922 8.09356C8.04922 8.10835 8.04922 8.12313 8.04922 8.13791C8.04922 8.13791 8.04922 8.1453 8.04922 8.16009C8.04922 8.17487 8.04922 8.18965 8.04922 8.20444C8.04922 8.67749 7.88661 9.0914 7.56139 9.44619C7.23616 9.80098 6.83703 9.99315 6.36398 10.0227H6.34181ZM12.6393 10.0227C12.1514 9.99315 11.7449 9.80098 11.4197 9.44619C11.0945 9.0914 10.9319 8.6701 10.9319 8.18226C10.9319 8.18226 10.9319 8.17487 10.9319 8.16009C10.9319 8.1453 10.9319 8.13052 10.9319 8.11574V8.13791C10.9319 8.12313 10.9319 8.10835 10.9319 8.09356C10.9319 8.07878 10.9319 8.064 10.9319 8.04922C10.9319 7.57617 11.0945 7.16225 11.4197 6.80746C11.7449 6.45268 12.144 6.2605 12.6171 6.23094H12.6393C13.1123 6.2605 13.5151 6.44898 13.8478 6.79638C14.1804 7.14377 14.3467 7.56138 14.3467 8.04922C14.3467 8.064 14.343 8.07878 14.3356 8.09356C14.3282 8.10835 14.3245 8.12313 14.3245 8.13791C14.3245 8.13791 14.3282 8.1453 14.3356 8.16009C14.343 8.17487 14.3467 8.18965 14.3467 8.20444C14.3467 8.69227 14.1804 9.10988 13.8478 9.45728C13.5151 9.80467 13.1123 9.99315 12.6393 10.0227Z" fill="white"/>
</svg>
