<svg width="18" height="18" viewBox="0 0 18 18" fill="none" xmlns="http://www.w3.org/2000/svg">
<path opacity="0.5" d="M16.5763 0H1.45349C1.1874 0 0.961962 0.0923913 0.777177 0.277177C0.592391 0.461962 0.5 0.687397 0.5 0.953488V16.0763C0.5 16.3424 0.592391 16.5678 0.777177 16.7526C0.961962 16.9374 1.1874 17.0297 1.45349 17.0297H9.5914V10.444H7.37399V7.87182H9.5914V5.96485C9.5914 4.87092 9.89814 4.032 10.5116 3.44808C11.1251 2.86416 11.9271 2.5722 12.9175 2.5722C13.2427 2.5722 13.5717 2.57959 13.9043 2.59438C14.2369 2.60916 14.5658 2.63872 14.891 2.68307V4.96701H13.5384C13.0062 4.96701 12.6588 5.08158 12.4962 5.31071C12.3336 5.53984 12.2523 5.84658 12.2523 6.23094V7.87182H14.8023L14.4697 10.444H12.2523V17.0297H16.5763C16.8424 17.0297 17.0678 16.9374 17.2526 16.7526C17.4374 16.5678 17.5297 16.3424 17.5297 16.0763V0.953488C17.5297 0.687397 17.4374 0.461962 17.2526 0.277177C17.0678 0.0923913 16.8424 0 16.5763 0Z" fill="white"/>
</svg>
