<svg width="18" height="18" viewBox="0 0 18 18" fill="none" xmlns="http://www.w3.org/2000/svg">
<path opacity="0.5" d="M16.9854 5.03353C16.9706 4.66396 16.93 4.29809 16.8634 3.93591C16.7969 3.57373 16.6971 3.23004 16.5641 2.90481L16.5863 2.94916C16.3645 2.37263 16.0393 1.87002 15.6106 1.44132C15.1819 1.01262 14.6867 0.6874 14.1249 0.465657L14.1028 0.443483C13.7923 0.32522 13.4634 0.232829 13.116 0.166306C12.7686 0.0997832 12.4101 0.0665225 12.0406 0.0665225H12.0184C11.5601 0.0369568 11.1499 0.0184784 10.7877 0.0110869C10.4255 0.00369576 9.66794 0 8.51487 0C7.36181 0 6.60051 0.00369576 6.23094 0.0110869C5.86137 0.0184784 5.45484 0.0369568 5.01136 0.0665225C4.627 0.0665225 4.26113 0.103479 3.91374 0.177393C3.56634 0.251307 3.23004 0.347394 2.90481 0.465657L2.92699 0.443483C2.36524 0.680008 1.87002 1.01262 1.44132 1.44132C1.01262 1.87002 0.6874 2.35785 0.465657 2.90481L0.443483 2.94916C0.32522 3.2596 0.232829 3.58851 0.166306 3.93591C0.0997832 4.28331 0.059131 4.64179 0.0443484 5.01136C0.0295653 5.46963 0.0184784 5.87984 0.0110869 6.24202C0.00369576 6.6042 0 7.36181 0 8.51487C0 9.66793 0 10.4292 0 10.7988C0 11.1684 0.0147826 11.5823 0.0443484 12.0406C0.059131 12.3954 0.0997832 12.7427 0.166306 13.0827C0.232829 13.4228 0.32522 13.7628 0.443483 14.1028C0.665226 14.6793 0.990443 15.1819 1.41915 15.6106C1.84785 16.0393 2.34307 16.3645 2.90481 16.5863H2.94916C3.24482 16.7193 3.56634 16.8228 3.91374 16.8967C4.26113 16.9706 4.61961 17.0076 4.98918 17.0076H5.01136C5.46963 17.0371 5.87984 17.0556 6.24202 17.063C6.6042 17.0704 7.36181 17.0741 8.51487 17.0741C9.66794 17.0741 10.4292 17.0704 10.7988 17.063C11.1684 17.0556 11.5749 17.0371 12.0184 17.0076C12.4027 17.0076 12.7686 16.9706 13.116 16.8967C13.4634 16.8228 13.8071 16.7267 14.1471 16.6084L14.1028 16.6306C14.6645 16.3941 15.1597 16.0615 15.5884 15.6328C16.0171 15.2041 16.3423 14.7162 16.5641 14.1693L16.5863 14.1249C16.7045 13.7997 16.7969 13.4634 16.8634 13.116C16.93 12.7686 16.9706 12.4175 16.9854 12.0627C17.0002 11.6045 17.0113 11.1943 17.0187 10.8321C17.0261 10.4699 17.0297 9.71228 17.0297 8.55922C17.0297 7.39138 17.0297 6.62638 17.0297 6.2642C17.0297 5.90202 17.015 5.4918 16.9854 5.03353ZM8.51487 12.8832C7.90878 12.8832 7.33965 12.7723 6.80746 12.5506C6.27528 12.314 5.80963 11.9999 5.41049 11.6082C5.01136 11.2164 4.70092 10.7545 4.47918 10.2223C4.24265 9.6901 4.12439 9.12097 4.12439 8.51487C4.12439 7.90878 4.24265 7.33965 4.47918 6.80746C4.70092 6.27528 5.01136 5.81332 5.41049 5.42158C5.80963 5.02983 6.27528 4.7157 6.80746 4.47918C7.33965 4.25744 7.90878 4.14657 8.51487 4.14657C9.12097 4.14657 9.6901 4.25744 10.2223 4.47918C10.7397 4.7157 11.1979 5.02983 11.5971 5.42158C11.9962 5.81332 12.3067 6.27528 12.5284 6.80746C12.7649 7.33965 12.8832 7.90878 12.8832 8.51487C12.8832 9.12097 12.7649 9.6901 12.5284 10.2223C12.3067 10.7545 11.9962 11.2164 11.5971 11.6082C11.1979 11.9999 10.7397 12.314 10.2223 12.5506C9.6901 12.7723 9.12097 12.8832 8.51487 12.8832ZM13.0606 5.01136C12.7797 5.01136 12.5395 4.91157 12.3399 4.71201C12.1403 4.51244 12.0406 4.27222 12.0406 3.99135C12.0406 3.71047 12.1403 3.47026 12.3399 3.27069C12.5395 3.07112 12.7797 2.97134 13.0606 2.97134C13.3414 2.97134 13.5817 3.07112 13.7812 3.27069C13.9808 3.47026 14.0806 3.71047 14.0806 3.99135C14.0806 4.27222 13.9808 4.51244 13.7812 4.71201C13.5817 4.91157 13.3414 5.01136 13.0606 5.01136ZM11.3532 8.51487C11.3532 9.29836 11.076 9.96728 10.5216 10.5216C9.96728 11.076 9.29836 11.3532 8.51487 11.3532C7.73138 11.3532 7.06247 11.076 6.50811 10.5216C5.95376 9.96728 5.67658 9.29836 5.67658 8.51487C5.67658 7.73138 5.95376 7.06247 6.50811 6.50811C7.06247 5.95376 7.73138 5.67658 8.51487 5.67658C9.29836 5.67658 9.96728 5.95376 10.5216 6.50811C11.076 7.06247 11.3532 7.73138 11.3532 8.51487Z" fill="white"/>
</svg>
