<svg width="16" height="16" viewBox="0 0 16 16" fill="none" xmlns="http://www.w3.org/2000/svg">
<g opacity="0.5" clip-path="url(#clip0_3169_356)">
<path d="M8 16C6.90667 16 5.87333 15.7899 4.9 15.3696C3.92667 14.9493 3.0768 14.376 2.3504 13.6496C1.624 12.9232 1.05067 12.0733 0.6304 11.1C0.210133 10.1267 0 9.09333 0 8C0 6.89333 0.210133 5.8568 0.6304 4.8904C1.05067 3.924 1.624 3.07733 2.3504 2.3504C3.0768 1.62347 3.92667 1.05013 4.9 0.6304C5.87333 0.210667 6.90667 0.000533333 8 0C9.10667 0 10.1435 0.210133 11.1104 0.6304C12.0773 1.05067 12.9237 1.624 13.6496 2.3504C14.3755 3.0768 14.9488 3.92347 15.3696 4.8904C15.7904 5.85733 16.0005 6.89387 16 8C16 9.09333 15.7899 10.1267 15.3696 11.1C14.9493 12.0733 14.376 12.9235 13.6496 13.6504C12.9232 14.3773 12.0765 14.9507 11.1096 15.3704C10.1427 15.7901 9.10613 16 8 16ZM8 14.36C8.34667 13.88 8.64667 13.38 8.9 12.86C9.15333 12.34 9.36 11.7867 9.52 11.2H6.48C6.64 11.7867 6.84667 12.34 7.1 12.86C7.35333 13.38 7.65333 13.88 8 14.36ZM5.92 14.04C5.68 13.6 5.47013 13.1432 5.2904 12.6696C5.11067 12.196 4.96053 11.7061 4.84 11.2H2.48C2.86667 11.8667 3.35013 12.4467 3.9304 12.94C4.51067 13.4333 5.17387 13.8 5.92 14.04ZM10.08 14.04C10.8267 13.8 11.4901 13.4333 12.0704 12.94C12.6507 12.4467 13.1339 11.8667 13.52 11.2H11.16C11.04 11.7067 10.8901 12.1968 10.7104 12.6704C10.5307 13.144 10.3205 13.6005 10.08 14.04ZM1.8 9.6H4.52C4.48 9.33333 4.45013 9.07013 4.4304 8.8104C4.41067 8.55067 4.40053 8.28053 4.4 8C4.39947 7.71947 4.4096 7.4496 4.4304 7.1904C4.4512 6.9312 4.48107 6.66773 4.52 6.4H1.8C1.73333 6.66667 1.68347 6.93013 1.6504 7.1904C1.61733 7.45067 1.60053 7.72053 1.6 8C1.59947 8.27947 1.61627 8.5496 1.6504 8.8104C1.68453 9.0712 1.7344 9.3344 1.8 9.6ZM6.12 9.6H9.88C9.92 9.33333 9.95013 9.07013 9.9704 8.8104C9.99067 8.55067 10.0005 8.28053 10 8C9.99947 7.71947 9.98933 7.4496 9.9696 7.1904C9.94987 6.9312 9.92 6.66773 9.88 6.4H6.12C6.08 6.66667 6.05013 6.93013 6.0304 7.1904C6.01067 7.45067 6.00053 7.72053 6 8C5.99947 8.27947 6.0096 8.5496 6.0304 8.8104C6.0512 9.0712 6.08107 9.3344 6.12 9.6ZM11.48 9.6H14.2C14.2667 9.33333 14.3168 9.07013 14.3504 8.8104C14.384 8.55067 14.4005 8.28053 14.4 8C14.3995 7.71947 14.3829 7.4496 14.3504 7.1904C14.3179 6.9312 14.2677 6.66773 14.2 6.4H11.48C11.52 6.66667 11.5501 6.93013 11.5704 7.1904C11.5907 7.45067 11.6005 7.72053 11.6 8C11.5995 8.27947 11.5893 8.5496 11.5696 8.8104C11.5499 9.0712 11.52 9.3344 11.48 9.6ZM11.16 4.8H13.52C13.1333 4.13333 12.6501 3.55333 12.0704 3.06C11.4907 2.56667 10.8272 2.2 10.08 1.96C10.32 2.4 10.5301 2.8568 10.7104 3.3304C10.8907 3.804 11.0405 4.29387 11.16 4.8ZM6.48 4.8H9.52C9.36 4.21333 9.15333 3.66 8.9 3.14C8.64667 2.62 8.34667 2.12 8 1.64C7.65333 2.12 7.35333 2.62 7.1 3.14C6.84667 3.66 6.64 4.21333 6.48 4.8ZM2.48 4.8H4.84C4.96 4.29333 5.11013 3.8032 5.2904 3.3296C5.47067 2.856 5.68053 2.39947 5.92 1.96C5.17333 2.2 4.50987 2.56667 3.9296 3.06C3.34933 3.55333 2.86613 4.13333 2.48 4.8Z" fill="white"/>
</g>
<defs>
<clipPath id="clip0_3169_356">
<rect width="16" height="16" fill="white"/>
</clipPath>
</defs>
</svg>
