<svg width="16" height="18" viewBox="0 0 16 18" fill="none" xmlns="http://www.w3.org/2000/svg">
<path opacity="0.5" d="M14.7637 4.2182C13.8497 4.02135 13.0799 3.57493 12.4542 2.87892C11.8285 2.18291 11.4665 1.36389 11.368 0.42182V0.400729V0H8.26767V12.3171C8.26767 13.0342 8.01458 13.6459 7.50839 14.1521C7.00221 14.6582 6.38354 14.9113 5.65239 14.9113C5.23056 14.9113 4.84038 14.8164 4.48184 14.6266C4.12329 14.4368 3.8245 14.1872 3.58547 13.8779C3.41674 13.6529 3.28668 13.4068 3.19528 13.1397C3.10389 12.8725 3.05819 12.5913 3.05819 12.296C3.05819 11.5789 3.31128 10.9673 3.81747 10.4611C4.32366 9.95494 4.93529 9.70185 5.65239 9.70185C5.65239 9.70185 5.65942 9.70185 5.67348 9.70185H5.65239C5.66645 9.70185 5.67348 9.70185 5.67348 9.70185C5.81408 9.70185 5.95117 9.7124 6.08475 9.73349C6.21833 9.75458 6.34839 9.78622 6.47493 9.8284L6.45384 9.80731V6.66475C6.34136 6.65069 6.22184 6.64015 6.0953 6.63312C5.96875 6.62609 5.83517 6.62257 5.69457 6.62257C5.66645 6.62257 5.64184 6.62257 5.62075 6.62257C5.59966 6.62257 5.57505 6.62257 5.54693 6.62257C4.78765 6.63663 4.07056 6.79833 3.39565 7.10766C2.72073 7.417 2.13371 7.82827 1.63455 8.34149C1.1354 8.8547 0.738186 9.44876 0.442911 10.1237C0.147636 10.8127 0 11.5438 0 12.3171C0 13.0905 0.147636 13.8181 0.442911 14.5001C0.738186 15.182 1.13188 15.7831 1.62401 16.3033C2.14425 16.8236 2.75589 17.2349 3.45892 17.5372C4.16196 17.8395 4.90717 17.9906 5.69457 17.9906C6.48197 17.9906 7.22014 17.843 7.90912 17.5477C8.61216 17.2524 9.22027 16.8482 9.73349 16.335C10.2467 15.8218 10.6509 15.2207 10.9462 14.5317C11.2556 13.8427 11.4102 13.1045 11.4102 12.3171V6.01093C12.0008 6.43275 12.6581 6.76669 13.3822 7.01275C14.1064 7.25882 14.8691 7.38185 15.6706 7.38185C15.6706 7.38185 15.6741 7.38185 15.6812 7.38185C15.6882 7.38185 15.6917 7.38185 15.6917 7.38185V4.32365C15.6917 4.32365 15.6847 4.32365 15.6706 4.32365C15.5159 4.32365 15.3648 4.31311 15.2171 4.29202C15.0695 4.27093 14.9184 4.24632 14.7637 4.2182Z" fill="white"/>
</svg>
