<?xml version="1.0" encoding="utf-8"?>
<!-- Generator: Adobe Illustrator 25.0.1, SVG Export Plug-In . SVG Version: 6.00 Build 0)  -->
<svg version="1.1" id="zimaboard" xmlns="http://www.w3.org/2000/svg" xmlns:xlink="http://www.w3.org/1999/xlink" x="0px" y="0px"
	 viewBox="0 0 157 111" style="enable-background:new 0 0 157 111;" xml:space="preserve">
<style type="text/css">
	.st0{fill:#FFFFFF;stroke:#F1B335;stroke-miterlimit:10;}
	.st1{fill:#E7AD39;}
	.st2{fill:#F1B335;}
</style>
<rect x="10.9" y="5.7" class="st0" width="138.6" height="91.9"/>
<path class="st1" d="M125.4,66.8c-5.2,0-9.4,3.8-9.4,10.2v0.1c0,6.3,4.4,10.3,9.4,10.3c5,0,9.7-4.2,9.7-10.3V77
	C135.1,70.9,130.3,66.8,125.4,66.8"/>
<path class="st1" d="M32.9,66.8c-5,0-9.7,4.2-9.7,10.3v0.1c0,6.1,4.8,10.3,9.7,10.3c5.2,0,9.4-3.8,9.4-10.2v-0.1
	C42.3,70.8,37.9,66.8,32.9,66.8"/>
<path class="st1" d="M76.7,81.9L76.7,81.9c0,3.6,3.3,5.6,6.9,5.6c4.9,0,9-3,9-7.4v-2.7c-2-0.5-4.7-1.1-8.1-1.1
	C79.5,76.3,76.7,78.6,76.7,81.9"/>
<path class="st1" d="M128.2,38.8c-1.1-0.3-2.3-0.5-3.6-0.5c-3.4,0-5.5,1.4-5.5,3.9v0.1c0,2.2,1.8,3.4,4.4,3.4c3.7,0,6.3-2.1,6.3-5
	C129.7,39.8,129.1,39,128.2,38.8"/>
<path class="st2" d="M0.3,110.7h156.5V0.1H0.3V110.7z M54.2,11.4c2.1,0,3.8,1.7,3.8,3.8S56.3,19,54.2,19s-3.8-1.7-3.8-3.8
	C50.4,13,52.1,11.4,54.2,11.4 M50.4,22.4h3.2c2.6,0,4.8,2.1,4.8,4.8v23.5h-8V22.4z M44.8,77.1c0,7.8-5.9,12.5-11.6,12.5
	c-4.8,0-7.9-2.7-9.8-5.7v5.2c-1.3,0-2.3-1-2.3-2.3V54.9c1.3,0,2.3,1,2.3,2.3v13.3c2.1-3.1,5.1-5.9,9.8-5.9
	C38.9,64.6,44.8,69.3,44.8,77.1L44.8,77.1z M45.1,44.2v6.5H20.5v-0.3c0-3.5,1.3-6.8,3.6-9.4l11-12.2H20.9v-6.5H45
	c0,3.6-1.4,7.1-3.8,9.8l-10.9,12h14.8C45.1,44.1,45.1,44.2,45.1,44.2z M72,77.1c0,6.7-5.2,12.5-12.3,12.5s-12.2-5.7-12.2-12.4v-0.1
	c0-6.7,5.2-12.5,12.3-12.5S72,70.3,72,77.1L72,77.1z M94.9,89.1c-1.2,0-2.2-1-2.2-2.2v-1.7c-1.6,2.3-4.6,4.5-9.1,4.5
	c-4.4,0-9.2-2.5-9.2-7.5V82c0-5,4.3-7.8,10.4-7.8c3.3,0,5.6,0.4,7.9,1v-1c0-4.8-3-7.3-7.9-7.3c-2.1,0-3.9,0.4-5.6,1.1
	c-1.1,0.4-2.3-0.1-2.7-1.2c2.6-1.2,5.2-2.1,8.5-2.1c3.2,0,5.8,0.9,7.5,2.6c1.6,1.6,2.4,3.8,2.4,6.7L94.9,89.1L94.9,89.1z M95.4,29.2
	c-3,0-4.9,2-4.9,5.8v15.8h-8V34.9c0-3.8-1.7-5.8-4.7-5.8s-4.9,2-4.9,5.8v15.8h-8V22.4h4c2.2,0,4,1.8,4,4c1.8-2.4,4.3-4.5,8.3-4.5
	c3.7,0,6.5,1.6,8,4.5c2.5-2.9,5.4-4.5,9.3-4.5c6,0,9.5,3.6,9.5,10.4v18.4h-8V34.9C100.1,31.1,98.4,29.2,95.4,29.2 M113.2,65.3
	c-0.1,0.7-0.4,1.9-2.3,2.3c-0.1,0-0.2,0-0.3,0.1c-4.5,1-8,5-8,11.7v9.8h-2.3v-24c1.3,0,2.3,1,2.3,2.3V72c1.9-4.3,5.9-7.4,10.6-7.2
	C113.2,64.8,113.2,65.3,113.2,65.3z M137.3,89.4c-1.3,0-2.3-1-2.3-2.3v-3.4c-2.1,3.1-5.1,5.9-9.8,5.9c-5.8,0-11.6-4.6-11.6-12.4
	v-0.1c0-7.8,5.9-12.5,11.6-12.5c4.8,0,7.9,2.7,9.8,5.7V54.9c1.3,0,2.3,1,2.3,2.3V89.4z M137.3,50.7h-4.7c-1.7,0-3.1-1.4-3.1-3.1
	c-2,2.2-4.6,3.6-8.5,3.6c-5.3,0-9.7-3.1-9.7-8.7v-0.1c0-6.2,4.7-9,11.4-9c2.8,0,4.9,0.5,6.9,1.2v-0.5c0-3.3-2.1-5.2-6.1-5.2
	c-1.3,0-2.5,0.1-3.6,0.3c-2.5,0.5-4.9-1-5.7-3.4l-0.5-1.5c3.1-1.4,6.2-2.3,11-2.3c4.4,0,7.5,1.2,9.5,3.2c2.1,2.1,3.1,5.2,3.1,9
	L137.3,50.7L137.3,50.7z"/>
<path class="st1" d="M59.7,66.8C54,66.8,50,71.4,50,77v0.1c0,5.8,4.3,10.3,9.8,10.3c5.7,0,9.7-4.6,9.7-10.3V77
	C69.5,71.4,65.2,66.8,59.7,66.8"/>
</svg>
