<svg width="19" height="14" viewBox="0 0 19 14" fill="none" xmlns="http://www.w3.org/2000/svg">
<path opacity="0.5" d="M18.5376 2.08437C18.4341 1.68523 18.2345 1.33784 17.9389 1.04219C17.6432 0.746528 17.2958 0.539572 16.8967 0.421309H16.8745C16.505 0.317829 15.9137 0.236524 15.1006 0.177393C14.2728 0.133045 13.4449 0.0960882 12.6171 0.0665225C11.7893 0.0369568 11.0575 0.0221742 10.4219 0.0221742C9.78619 0.00739112 9.46836 0 9.46836 0C9.46836 0 9.15054 0.00739112 8.51487 0.0221742C7.87921 0.0221742 7.14747 0.0332611 6.31963 0.0554352C5.49179 0.0776098 4.66397 0.11087 3.83613 0.155219C3.02307 0.21435 2.43177 0.295655 2.0622 0.399135C1.64828 0.517398 1.29349 0.724354 0.997837 1.02001C0.70218 1.31567 0.502615 1.66306 0.399135 2.0622C0.192175 2.81612 0.0739141 3.7659 0.0443484 4.91157C0.0147826 6.05724 0 6.63007 0 6.63007C0 6.63007 0.0147826 7.20659 0.0443484 8.35965C0.0739141 9.51272 0.184784 10.4514 0.376961 11.1758C0.48044 11.5897 0.683702 11.9445 0.98675 12.2401C1.2898 12.5358 1.64089 12.7427 2.04002 12.861C2.42438 12.9497 3.02307 13.0236 3.83613 13.0827C4.64918 13.1419 5.47332 13.1862 6.30855 13.2158C7.14378 13.2454 7.87921 13.2601 8.51487 13.2601C9.13575 13.2601 9.44619 13.2601 9.44619 13.2601C9.44619 13.2601 9.76402 13.2601 10.3997 13.2601C11.0353 13.2601 11.7708 13.2491 12.606 13.2269C13.4412 13.2047 14.2654 13.1641 15.0784 13.1049C15.8915 13.0606 16.4828 12.9867 16.8524 12.8832C17.2663 12.7649 17.6211 12.558 17.9167 12.2623C18.2124 11.9666 18.4193 11.6266 18.5376 11.2423V11.2201C18.7298 10.481 18.8443 9.53489 18.8813 8.38183C18.9182 7.22877 18.9367 6.65225 18.9367 6.65225C18.9367 6.65225 18.9219 6.07572 18.8924 4.92266C18.8628 3.7696 18.7446 2.82351 18.5376 2.08437ZM7.56139 9.46836L7.58356 3.79178L12.5062 6.63007L7.56139 9.46836Z" fill="white"/>
</svg>
